<svg width="800" height="800" xmlns="http://www.w3.org/2000/svg">
 <g id="Layer_1">
  <title>Layer 1</title>
  <ellipse fill="#6da6d6" cx="400" cy="400" id="svg_2" rx="394.49999" ry="397" stroke-width="0" stroke="#000"/>
  <text fill="#ffffff" x="139.90422" y="413.35548" id="svg_3" stroke-width="0" font-size="220" font-family="'Alegreya'" text-anchor="start" xml:space="preserve" font-weight="normal" stroke="#000" transform="matrix(2.59884 0 0 2.52118 -291.316 -465.41)">TG</text>
  <path fill="#ffffff" stroke="#000" stroke-width="0" d="m667.76417,655.78079c-0.6595,0.0577 -1.33378,0.09758 -2.02725,0.09758l0,0c-0.6203,0 -1.22286,-0.03157 -1.81066,-0.07838l0,0l-5.08953,6.08111l-1.25167,-0.32986c-1.46906,-0.38349 -2.89599,-0.86462 -4.26817,-1.44193l0,0l-1.18957,-0.50034l0.30607,-7.63848c-1.08165,-0.70382 -2.09081,-1.48732 -3.02538,-2.34638l0,0l-8.04686,1.60689l-0.7349,-1.00352c-0.86206,-1.17797 -1.59695,-2.41237 -2.24828,-3.66041l0,0l-0.5656,-1.09009l5.46366,-5.62197c-0.34159,-1.1904 -0.56781,-2.41929 -0.68463,-3.67145l0,0l-7.24027,-3.55873l0.13159,-1.20555c0.15528,-1.44195 0.45543,-2.82198 0.814,-4.14844l0,0l0.32015,-1.17669l8.0757,-1.03916c0.57592,-1.1299 1.25392,-2.20068 2.01763,-3.20689l0,0l-3.08152,-7.0529l0.93009,-0.84674c1.09344,-0.9897 2.26383,-1.88727 3.48517,-2.70792l0,0l1.05799,-0.70923l6.97115,4.07006c1.17483,-0.50306 2.40357,-0.91682 3.67669,-1.23437l0,0l2.52704,-7.28934l1.3027,-0.09207c0.70164,-0.04809 1.45576,-0.10448 2.27566,-0.10448l0,0c0.81769,0 1.56957,0.05638 2.27124,0.10448l0,0l1.30267,0.09207l2.55438,7.36499c1.22433,0.31747 2.41097,0.723 3.54807,1.21512l0,0l7.06875,-4.12791l1.06167,0.70931c1.22138,0.81927 2.39392,1.71958 3.48522,2.70517l0,0l0.93374,0.84674l-3.17616,7.26188c0.69203,0.93468 1.316,1.9244 1.84907,2.96495l0,0l8.32783,1.07214l0.32381,1.17661c0.36376,1.32513 0.66246,2.70516 0.81398,4.14987l0,0l0.13163,1.20548l-7.49314,3.68243c-0.11236,1.14233 -0.31198,2.26674 -0.60994,3.36224l0,0l5.64553,5.798l-0.56779,1.0941c-0.64913,1.25226 -1.38035,2.49074 -2.2461,3.66462l0,0l-0.73489,1.00065l-8.24648,-1.64254c-0.8739,0.81233 -1.82022,1.56012 -2.83166,2.23504l0,0l0.31421,7.78831l-1.19253,0.50173c-1.37369,0.57457 -2.79838,1.05705 -4.26739,1.44056l0,0l-1.25616,0.32989l-5.10062,-6.09624l0,0l0,0l0.00006,-0.00001zm6.54454,1.95056c0.43993,-0.13613 0.87242,-0.28324 1.30046,-0.43994l0,0l-0.29424,-7.35529l0.92788,-0.55399c1.38992,-0.83843 2.65565,-1.84467 3.77945,-2.98689l0,0l0.7482,-0.76148l7.80292,1.5532c0.23437,-0.36428 0.46132,-0.73677 0.68015,-1.11749l0,0l-5.33721,-5.48592l0.33122,-0.98011c0.47093,-1.41168 0.73858,-2.92511 0.81768,-4.50439l0,0l0.0488,-1.02825l7.08942,-3.48311c-0.07392,-0.42202 -0.15891,-0.84125 -0.25579,-1.26191l0,0l-7.88792,-1.01435l-0.42434,-0.9485c-0.63437,-1.41861 -1.47352,-2.74641 -2.47531,-3.97114l0,0l-0.66245,-0.81651l3.0002,-6.86045c-0.34749,-0.28323 -0.70385,-0.55809 -1.06981,-0.82475l0,0l-6.69684,3.90791l-0.98629,-0.48392c-1.46089,-0.71477 -3.04086,-1.25773 -4.70732,-1.60959l0,0l-1.07793,-0.22953l-2.41834,-6.97184c-0.23513,-0.01096 -0.46358,-0.01651 -0.68611,-0.01651l0,0c-0.227,0 -0.45543,0.00555 -0.69203,0.01651l0,0l-2.40131,6.9265l-1.09349,0.21718c-1.69531,0.33809 -3.3122,0.88933 -4.81821,1.61372l0,0l-0.98408,0.47558l-6.58817,-3.84601c-0.36374,0.26666 -0.72086,0.54153 -1.06536,0.82475l0,0l2.92032,6.6804l-0.68606,0.81781c-1.06982,1.27697 -1.95925,2.67633 -2.62613,4.17872l0,0l-0.42214,0.95258l-7.63434,0.98142c-0.09684,0.42067 -0.18259,0.8399 -0.2543,1.26191l0,0l6.84399,3.36356l0.04212,1.03637c0.0717,1.67293 0.37262,3.27842 0.89014,4.77945l0,0l0.33865,0.98689l-5.1687,5.3155c0.21738,0.3821 0.44361,0.75459 0.68022,1.11885l0,0l7.58993,-1.51889l0.75562,0.76151c1.16444,1.18495 2.49449,2.21446 3.95986,3.06949l0,0l0.94562,0.54838l-0.28909,7.24261c0.42881,0.1567 0.8628,0.30382 1.30269,0.43994l0,0l4.80419,-5.74297l1.09715,0.12503c0.82805,0.09761 1.63392,0.16085 2.43611,0.16085l0,0c0.86279,0 1.73296,-0.07007 2.6224,-0.18693l0,0l1.1068,-0.14429l4.84113,5.78831l0,0l0,0l-0.00001,0.00002zm2.18989,-14.91411l1.0587,1.51196l-6.71163,4.05917l-2.3821,-3.40763l0,0c-0.86653,0.19655 -1.77738,0.3121 -2.72518,0.3121l0,0c-6.55862,0 -11.87292,-4.94161 -11.87292,-11.03234l0,0c0,-6.09619 5.3143,-11.03643 11.87292,-11.03643l0,0c6.55122,0 11.86695,4.94025 11.86695,11.03643l0,0c0,2.50305 -0.9049,4.82196 -2.422,6.67355l0,0l1.31526,1.88319m-4.51512,0.58139l0.20923,-0.12366l-1.91338,-2.73675l1.10898,-1.03097c1.44986,-1.35119 2.33926,-3.19448 2.33926,-5.24675l0,0c-0.00814,-4.10306 -3.58206,-7.42546 -7.99067,-7.43367l0,0c-4.41899,0.00821 -7.98921,3.32646 -7.9966,7.43367l0,0c0.0074,4.09897 3.58131,7.4213 7.9966,7.42958l0,0c0.98623,0 1.93556,-0.18834 2.85454,-0.51548l0,0l1.46535,-0.52234l1.92668,2.74636l0,0l0.00001,0.00001z" id="svg_17"/>
 </g>

</svg>